<?xml version="1.0" encoding="UTF-8" standalone="no"?>
<!-- Created with Inkscape (http://www.inkscape.org/) -->

<svg
   xmlns:dc="http://purl.org/dc/elements/1.1/"
   xmlns:cc="http://creativecommons.org/ns#"
   xmlns:rdf="http://www.w3.org/1999/02/22-rdf-syntax-ns#"
   xmlns:svg="http://www.w3.org/2000/svg"
   xmlns="http://www.w3.org/2000/svg"
   xmlns:sodipodi="http://sodipodi.sourceforge.net/DTD/sodipodi-0.dtd"
   xmlns:inkscape="http://www.inkscape.org/namespaces/inkscape"
   width="32px"
   height="32px"
   id="svg2993"
   version="1.1"
   inkscape:version="0.48.1 r9760"
   sodipodi:docname="next-worm-icon.png">
  <defs
     id="defs2995" />
  <sodipodi:namedview
     id="base"
     pagecolor="#ffffff"
     bordercolor="#666666"
     borderopacity="1.0"
     inkscape:pageopacity="0.0"
     inkscape:pageshadow="2"
     inkscape:zoom="7.03"
     inkscape:cx="-17.491709"
     inkscape:cy="15.996607"
     inkscape:current-layer="layer2"
     showgrid="true"
     inkscape:grid-bbox="true"
     inkscape:document-units="px"
     inkscape:snap-global="false"
     inkscape:window-width="1920"
     inkscape:window-height="951"
     inkscape:window-x="0"
     inkscape:window-y="0"
     inkscape:window-maximized="0">
    <inkscape:grid
       type="xygrid"
       id="grid3005" />
  </sodipodi:namedview>
  <metadata
     id="metadata2998">
    <rdf:RDF>
      <cc:Work
         rdf:about="">
        <dc:format>image/svg+xml</dc:format>
        <dc:type
           rdf:resource="http://purl.org/dc/dcmitype/StillImage" />
        <dc:title></dc:title>
      </cc:Work>
    </rdf:RDF>
  </metadata>
  <g
     id="layer1"
     inkscape:label="Layer 1"
     inkscape:groupmode="layer" />
  <g
     inkscape:groupmode="layer"
     id="layer2"
     inkscape:label="Arrow">
    <path
       style="fill:#000080;stroke:#0000ff;stroke-width:1px;stroke-linecap:butt;stroke-linejoin:miter;stroke-opacity:1"
       d="M 5,12 20,12 20,7 30,17 20,27 20,22 5,22 z"
       id="path3003"
       inkscape:connector-curvature="0"
       sodipodi:nodetypes="cccccccc" />
    <path
       style="fill:#000000;stroke:#000000;stroke-width:1px;stroke-linecap:butt;stroke-linejoin:miter;stroke-opacity:1;fill-opacity:1"
       d="M 25,2 C 25.654041,0.46702645 21.595415,1.5178929 20,2 17.997719,2.6050548 15.685705,3.379433 14.573257,5.1507824 13.34964,7.0991458 15,10.285918 14.715505,12.56899 14.43101,14.852063 17.050651,15.356449 15.995733,16.715505 13.951831,19.348674 8.0795984,15.724389 5,17 2.8223951,17.901994 0.75154116,19.906591 2.4182077,21.573257 4.0848744,23.239924 4.7722923,36.597882 5,27 l 0.1422475,-5.995733 c 0.072313,-3.04798 6.7717025,0.08214 9.7155045,-0.711238 C 17.102694,19.688002 18.930974,19.064705 20,17 20.658896,15.727416 18.759227,14.39168 18.435277,12.995733 18.001793,11.127786 16.762392,8.9309682 17.745377,7.284495 19.278999,4.7157195 23.825961,4.7517698 25,2 z"
       id="path3778"
       inkscape:connector-curvature="0"
       sodipodi:nodetypes="ssssssssssssss" />
  </g>
  <g
     inkscape:groupmode="layer"
     id="layer3"
     inkscape:label="Icon" />
</svg>
